<svg width="120" height="120" viewBox="0 0 120 120" fill="none" xmlns="http://www.w3.org/2000/svg">
  <!-- Background circle with gradient -->
  <circle cx="60" cy="60" r="60" fill="url(#gradient)"/>
  
  <!-- Heart icon -->
  <path d="M60 85C60 85 35 70 35 55C35 45 42 40 50 40C55 40 60 45 60 50C60 45 65 40 70 40C78 40 85 45 85 55C85 70 60 85 60 85Z" fill="white"/>
  
  <!-- Sync arrows around the heart -->
  <path d="M75 30L85 40L75 50M85 40H70" stroke="white" stroke-width="2" stroke-linecap="round" stroke-linejoin="round"/>
  <path d="M45 90L35 80L45 70M35 80H50" stroke="white" stroke-width="2" stroke-linecap="round" stroke-linejoin="round"/>
  
  <!-- Gradient definition -->
  <defs>
    <linearGradient id="gradient" x1="0%" y1="0%" x2="100%" y2="100%">
      <stop offset="0%" style="stop-color:#E91E63;stop-opacity:1" />
      <stop offset="100%" style="stop-color:#9C27B0;stop-opacity:1" />
    </linearGradient>
  </defs>
</svg>
